<?xml version="1.0" encoding="UTF-8"?>
<svg width="10px" height="19px" viewBox="0 0 10 19" version="1.1" xmlns="http://www.w3.org/2000/svg" xmlns:xlink="http://www.w3.org/1999/xlink">
    <!-- Generator: Sketch 55.1 (78136) - https://sketchapp.com -->
    <title>drag-icon</title>
    <desc>Created with Sketch.</desc>
    <g id="Symbols" stroke="none" stroke-width="1" fill="none" fill-rule="evenodd">
        <g id="tr" transform="translate(-27.000000, -26.000000)" fill="#141514">
            <g id="drag-icon" transform="translate(27.000000, 26.000000)">
                <path d="M1.5,3 C0.671572875,3 0,2.32842712 0,1.5 C0,0.671572875 0.671572875,0 1.5,0 C2.32842712,0 3,0.671572875 3,1.5 C3,2.32842712 2.32842712,3 1.5,3 Z M8.5,3 C7.67157288,3 7,2.32842712 7,1.5 C7,0.671572875 7.67157288,0 8.5,0 C9.32842712,0 10,0.671572875 10,1.5 C10,2.32842712 9.32842712,3 8.5,3 Z M1.5,11 C0.671572875,11 0,10.3284271 0,9.5 C0,8.67157288 0.671572875,8 1.5,8 C2.32842712,8 3,8.67157288 3,9.5 C3,10.3284271 2.32842712,11 1.5,11 Z M8.5,11 C7.67157288,11 7,10.3284271 7,9.5 C7,8.67157288 7.67157288,8 8.5,8 C9.32842712,8 10,8.67157288 10,9.5 C10,10.3284271 9.32842712,11 8.5,11 Z M1.5,19 C0.671572875,19 0,18.3284271 0,17.5 C0,16.6715729 0.671572875,16 1.5,16 C2.32842712,16 3,16.6715729 3,17.5 C3,18.3284271 2.32842712,19 1.5,19 Z M8.5,19 C7.67157288,19 7,18.3284271 7,17.5 C7,16.6715729 7.67157288,16 8.5,16 C9.32842712,16 10,16.6715729 10,17.5 C10,18.3284271 9.32842712,19 8.5,19 Z"></path>
            </g>
        </g>
    </g>
</svg>